<?xml version="1.0" encoding="utf-8"?>
<!-- Generator: Adobe Illustrator 24.2.1, SVG Export Plug-In . SVG Version: 6.00 Build 0)  -->
<svg version="1.1" id="Capa_1" xmlns="http://www.w3.org/2000/svg" xmlns:xlink="http://www.w3.org/1999/xlink" x="0px" y="0px"
	 viewBox="0 0 170 48" style="enable-background:new 0 0 170 48;" xml:space="preserve">
<style type="text/css">
	.st0{fill:#E5E5E5;}
	.st1{fill:#04E762;}
</style>
<g>
	<g>
		<path class="st0" d="M29.14,38c-0.34,0-0.84-0.04-1.5-0.11c-0.66-0.07-1.28-0.21-1.86-0.4l0.72-4.38c0.36,0.12,0.69,0.2,1,0.25
			c0.3,0.05,0.68,0.07,1.14,0.07c0.84,0,1.44-0.25,1.77-0.76c0.34-0.51,0.51-1.24,0.51-2.21V12.26h5.39v18.35
			c0,2.51-0.62,4.37-1.85,5.57C33.24,37.39,31.46,38,29.14,38z"/>
	</g>
	<g>
		<path class="st0" d="M57.63,30.65c-0.92,0.27-2.1,0.51-3.55,0.74c-1.45,0.23-2.97,0.34-4.56,0.34c-1.62,0-2.96-0.22-4.04-0.65
			c-1.07-0.43-1.92-1.04-2.55-1.83c-0.63-0.78-1.07-1.72-1.34-2.81c-0.27-1.09-0.4-2.28-0.4-3.58V12.26h5.39v9.95
			c0,1.74,0.23,2.99,0.69,3.76c0.46,0.77,1.31,1.16,2.57,1.16c0.39,0,0.8-0.02,1.23-0.05c0.43-0.04,0.82-0.08,1.16-0.13v-14.7h5.39
			V30.65z"/>
	</g>
	<g>
		<path class="st0" d="M69.54,11.75c1.59,0,2.92,0.18,3.98,0.54c1.06,0.36,1.91,0.88,2.55,1.56c0.64,0.68,1.09,1.5,1.36,2.46
			c0.27,0.97,0.4,2.04,0.4,3.22v11.22c-0.77,0.17-1.85,0.37-3.22,0.6c-1.38,0.23-3.04,0.34-4.99,0.34c-1.23,0-2.35-0.11-3.35-0.33
			c-1-0.22-1.86-0.57-2.59-1.07c-0.72-0.49-1.28-1.14-1.66-1.94c-0.39-0.8-0.58-1.77-0.58-2.93c0-1.11,0.22-2.05,0.67-2.82
			c0.45-0.77,1.04-1.39,1.79-1.85c0.75-0.46,1.6-0.79,2.57-1c0.96-0.2,1.97-0.31,3-0.31c0.7,0,1.32,0.03,1.86,0.09
			c0.54,0.06,0.98,0.14,1.32,0.24v-0.51c0-0.92-0.28-1.65-0.83-2.21c-0.56-0.55-1.52-0.83-2.9-0.83c-0.92,0-1.82,0.07-2.71,0.2
			c-0.89,0.13-1.67,0.32-2.32,0.56l-0.69-4.34c0.31-0.1,0.71-0.2,1.18-0.31c0.47-0.11,0.98-0.2,1.54-0.29
			c0.55-0.08,1.14-0.16,1.76-0.22C68.29,11.78,68.91,11.75,69.54,11.75z M69.97,27.54c0.53,0,1.04-0.01,1.52-0.04
			c0.48-0.02,0.87-0.06,1.16-0.11V23.3c-0.22-0.05-0.54-0.1-0.98-0.14c-0.43-0.05-0.83-0.07-1.19-0.07c-0.51,0-0.98,0.03-1.43,0.09
			c-0.45,0.06-0.84,0.18-1.18,0.34c-0.34,0.17-0.6,0.4-0.8,0.69c-0.19,0.29-0.29,0.65-0.29,1.09c0,0.84,0.28,1.43,0.85,1.76
			C68.2,27.37,68.98,27.54,69.97,27.54z"/>
	</g>
	<g>
		<path class="st0" d="M82.71,12.91c0.92-0.27,2.1-0.51,3.55-0.74c1.45-0.23,2.97-0.34,4.56-0.34c1.62,0,2.96,0.21,4.04,0.63
			c1.07,0.42,1.92,1.02,2.55,1.79c0.63,0.77,1.07,1.69,1.34,2.75c0.27,1.06,0.4,2.24,0.4,3.55V31.3h-5.39V21.2
			c0-1.74-0.23-2.97-0.69-3.69c-0.46-0.72-1.32-1.09-2.57-1.09c-0.39,0-0.8,0.02-1.23,0.05c-0.43,0.04-0.82,0.08-1.16,0.13v14.7
			h-5.39V12.91z"/>
	</g>
	<g>
		<path class="st0" d="M114.49,21.2c0-1.74-0.22-2.97-0.67-3.69c-0.45-0.72-1.21-1.09-2.3-1.09c-0.34,0-0.69,0.02-1.05,0.05
			c-0.36,0.04-0.71,0.08-1.05,0.13v14.7h-5.39V12.91c0.46-0.12,1-0.25,1.61-0.38c0.62-0.13,1.27-0.25,1.95-0.36
			c0.69-0.11,1.39-0.19,2.12-0.25c0.72-0.06,1.44-0.09,2.14-0.09c1.38,0,2.49,0.18,3.35,0.52c0.86,0.35,1.56,0.77,2.12,1.25
			c0.77-0.55,1.66-0.99,2.66-1.3c1-0.31,1.92-0.47,2.77-0.47c1.52,0,2.77,0.21,3.75,0.63c0.98,0.42,1.76,1.02,2.33,1.79
			c0.58,0.77,0.98,1.69,1.19,2.75c0.22,1.06,0.33,2.24,0.33,3.55V31.3h-5.39V21.2c0-1.74-0.22-2.97-0.67-3.69
			c-0.45-0.72-1.21-1.09-2.3-1.09c-0.29,0-0.69,0.07-1.21,0.22c-0.52,0.14-0.95,0.33-1.28,0.54c0.17,0.56,0.28,1.14,0.33,1.76
			c0.05,0.62,0.07,1.27,0.07,1.97V31.3h-5.39V21.2z"/>
	</g>
	<g>
		<path class="st0" d="M142.07,11.75c1.59,0,2.92,0.18,3.98,0.54c1.06,0.36,1.91,0.88,2.55,1.56c0.64,0.68,1.09,1.5,1.36,2.46
			c0.27,0.97,0.4,2.04,0.4,3.22v11.22c-0.77,0.17-1.85,0.37-3.22,0.6c-1.38,0.23-3.04,0.34-4.99,0.34c-1.23,0-2.35-0.11-3.35-0.33
			c-1-0.22-1.86-0.57-2.59-1.07c-0.72-0.49-1.28-1.14-1.66-1.94c-0.39-0.8-0.58-1.77-0.58-2.93c0-1.11,0.22-2.05,0.67-2.82
			c0.45-0.77,1.04-1.39,1.79-1.85c0.75-0.46,1.6-0.79,2.57-1c0.96-0.2,1.97-0.31,3-0.31c0.7,0,1.32,0.03,1.86,0.09
			c0.54,0.06,0.98,0.14,1.32,0.24v-0.51c0-0.92-0.28-1.65-0.83-2.21c-0.56-0.55-1.52-0.83-2.9-0.83c-0.92,0-1.82,0.07-2.71,0.2
			c-0.89,0.13-1.66,0.32-2.32,0.56l-0.69-4.34c0.31-0.1,0.71-0.2,1.18-0.31c0.47-0.11,0.98-0.2,1.54-0.29
			c0.55-0.08,1.14-0.16,1.76-0.22C140.82,11.78,141.44,11.75,142.07,11.75z M142.51,27.54c0.53,0,1.04-0.01,1.52-0.04
			c0.48-0.02,0.87-0.06,1.16-0.11V23.3c-0.22-0.05-0.54-0.1-0.98-0.14c-0.43-0.05-0.83-0.07-1.19-0.07c-0.51,0-0.98,0.03-1.43,0.09
			c-0.45,0.06-0.84,0.18-1.18,0.34c-0.34,0.17-0.6,0.4-0.8,0.69c-0.19,0.29-0.29,0.65-0.29,1.09c0,0.84,0.28,1.43,0.85,1.76
			C140.74,27.37,141.52,27.54,142.51,27.54z"/>
	</g>
	<g>
		<path class="st0" d="M36.58,6.87c0,0.93-0.3,1.65-0.9,2.19s-1.3,0.8-2.12,0.8c-0.81,0-1.52-0.27-2.12-0.8
			c-0.6-0.53-0.9-1.26-0.9-2.19s0.3-1.65,0.9-2.19c0.6-0.53,1.3-0.8,2.12-0.8c0.81,0,1.52,0.27,2.12,0.8S36.58,5.95,36.58,6.87z"/>
	</g>
</g>
<g>
	<path class="st1" d="M164.89,28.87c0.05,0.58,0.08,0.99,0.09,1.23c0.01,0.24,0.02,0.45,0.02,0.62c0,0.72-0.07,1.49-0.2,2.3
		c-0.13,0.81-0.32,1.62-0.56,2.44c-0.24,0.82-0.54,1.64-0.9,2.46c-0.36,0.82-0.77,1.6-1.23,2.35l-4.23-1.05
		c0.55-1.59,0.94-3.09,1.16-4.49c0.22-1.4,0.33-2.56,0.33-3.47c0-0.14-0.01-0.33-0.02-0.56c-0.01-0.23-0.02-0.46-0.04-0.71
		c-0.01-0.24-0.02-0.47-0.04-0.69c-0.01-0.22-0.02-0.36-0.02-0.43H164.89z M165.08,18.67c0,1.09-0.34,1.91-1.03,2.48
		c-0.69,0.57-1.47,0.85-2.33,0.85c-0.87,0-1.65-0.28-2.33-0.85s-1.03-1.39-1.03-2.48s0.34-1.91,1.03-2.48
		c0.69-0.57,1.47-0.85,2.33-0.85c0.87,0,1.65,0.28,2.33,0.85C164.73,16.76,165.08,17.58,165.08,18.67z"/>
</g>
<polygon class="st1" points="5.32,9.87 5.32,31.62 12.07,39.87 18.82,31.62 18.82,9.87 "/>
</svg>
